<?xml version="1.0" encoding="UTF-8" standalone="no"?>
<!-- Generator: Adobe Illustrator 16.0.0, SVG Export Plug-In . SVG Version: 6.00 Build 0)  -->

<svg
   xmlns:osb="http://www.openswatchbook.org/uri/2009/osb"
   xmlns:dc="http://purl.org/dc/elements/1.1/"
   xmlns:cc="http://creativecommons.org/ns#"
   xmlns:rdf="http://www.w3.org/1999/02/22-rdf-syntax-ns#"
   xmlns:svg="http://www.w3.org/2000/svg"
   xmlns="http://www.w3.org/2000/svg"
   xmlns:sodipodi="http://sodipodi.sourceforge.net/DTD/sodipodi-0.dtd"
   xmlns:inkscape="http://www.inkscape.org/namespaces/inkscape"
   version="1.1"
   id="Layer_1"
   x="0px"
   y="0px"
   width="512px"
   height="512px"
   viewBox="0 0 512 512"
   enable-background="new 0 0 512 512"
   xml:space="preserve"
   inkscape:version="0.91 r13725"
   sodipodi:docname="share-music.svg"><metadata
     id="metadata3390"><rdf:RDF><cc:Work
         rdf:about=""><dc:format>image/svg+xml</dc:format><dc:type
           rdf:resource="http://purl.org/dc/dcmitype/StillImage" /><dc:title></dc:title></cc:Work></rdf:RDF></metadata><defs
     id="defs3388"><linearGradient
       id="linearGradient4265"
       osb:paint="solid"><stop
         style="stop-color:#000000;stop-opacity:1;"
         offset="0"
         id="stop4267" /></linearGradient></defs><sodipodi:namedview
     pagecolor="#ffffff"
     bordercolor="#666666"
     borderopacity="1"
     objecttolerance="10"
     gridtolerance="10"
     guidetolerance="10"
     inkscape:pageopacity="0"
     inkscape:pageshadow="2"
     inkscape:window-width="2560"
     inkscape:window-height="1384"
     id="namedview3386"
     showgrid="false"
     inkscape:zoom="2.3359375"
     inkscape:cx="255.57191"
     inkscape:cy="307.37124"
     inkscape:window-x="1680"
     inkscape:window-y="30"
     inkscape:window-maximized="1"
     inkscape:current-layer="Layer_1" /><path
     d="m 192,128 c -52.563,0 -95.375,42.438 -96,94.813 0.25,1.938 0.438,3.875 0.5,5.875 l 0.813,23.5 -22.25,7.75 C 49.312,268.906 32,293.063 32,320 c 0,35.313 28.688,64 64,64 l 320,0 c 35.281,0 64,-28.688 64,-64 0,-34.938 -28.188,-63.438 -63,-64 -1.5,0.219 -3.063,0.406 -4.625,0.5 l -24.313,1.594 -8,-22.969 C 371.062,209.313 346.937,192 320,192 c -3.125,0 -6.563,0.375 -11.188,1.188 l -22.406,4.031 -11.156,-19.844 C 258.125,146.938 226.25,128 192,128 m 0,-32 c 47.938,0 89.219,26.688 111.156,65.688 C 308.625,160.719 314.219,160 320,160 c 41.938,0 77.219,27.063 90.281,64.563 1.906,-0.125 3.75,-0.563 5.719,-0.563 53,0 96,43 96,96 0,53 -43,96 -96,96 L 96,416 C 43,416 0,373 0,320 0,278.062 27.063,242.75 64.563,229.687 64.5,227.75 64,225.938 64,224 64,153.313 121.312,96 192,96 l 0,0 z"
     id="path3384"
     inkscape:connector-curvature="0"
     style="stroke-width:70.49999962;stroke-miterlimit:4;stroke-dasharray:none;stroke:#000000;stroke-opacity:0;fill:#ff9d00;fill-opacity:1;fill-rule:nonzero;image-rendering:auto" /><path
     id="path3440"
     d="M 408.39494,38.623331 382.92927,31.799834 317.97932,274.19637 c -11.34961,-11.75728 -27.74617,-21.5882 -47.39292,-26.85255 -42.17754,-11.30142 -82.50087,2.30934 -90.04403,30.46082 -7.54318,28.15151 20.57247,60.10042 62.74999,71.40185 42.17752,11.30143 82.50084,-2.30933 90.04402,-30.46082 l 54.58805,-203.72535 c 66.43621,6.71336 84.8039,90.95822 100.0343,135.98021 C 519.80723,68.476156 408.39494,38.623331 408.39494,38.623331 Z"
     inkscape:connector-curvature="0" /></svg>