<?xml version="1.0" encoding="UTF-8"?>
<!DOCTYPE svg PUBLIC "-//W3C//DTD SVG 1.1//EN" "http://www.w3.org/Graphics/SVG/1.1/DTD/svg11.dtd">
<!-- Creator: CorelDRAW 2017 -->
<svg xmlns="http://www.w3.org/2000/svg" xml:space="preserve" width="297mm" height="420mm" version="1.1" style="shape-rendering:geometricPrecision; text-rendering:geometricPrecision; image-rendering:optimizeQuality; fill-rule:evenodd; clip-rule:evenodd"
viewBox="0 0 29700 42000"
 xmlns:xlink="http://www.w3.org/1999/xlink">
 <defs>
  <style type="text/css">
   <![CDATA[
    .fil0 {fill:#00CCFF}
    .fil1 {fill:#666666}
    .fil2 {fill:#00CCFF;fill-rule:nonzero}
    .fil3 {fill:#666666;fill-rule:nonzero}
   ]]>
  </style>
 </defs>
 <g id="Layer_x0020_1">
  <metadata id="CorelCorpID_0Corel-Layer"/>
  <circle class="fil0" cx="24081" cy="18402" r="1748"/>
  <path class="fil1" d="M13803 22033l3932 0c42,-4 84,-9 125,-15 -46,-148 -70,-306 -70,-469 0,-878 711,-1589 1589,-1589 511,0 966,242 1257,617 70,-79 138,-160 203,-243 -272,-168 -454,-469 -454,-812 0,-527 427,-953 953,-953 109,0 214,18 312,52 72,-316 110,-645 110,-983 0,-44 -1,-87 -2,-130 -107,23 -218,35 -332,35 -878,0 -1589,-711 -1589,-1589 0,-559 289,-1050 725,-1334 -30,-32 -60,-63 -91,-94 -364,-364 -790,-664 -1263,-883 -127,377 -484,649 -904,649 -527,0 -953,-427 -953,-953 0,-34 2,-68 5,-102l-445 0c44,39 88,79 130,120 -904,-862 -2127,-1390 -3474,-1390 -1391,0 -2650,564 -3561,1475 -616,616 -1073,1390 -1304,2257 -1606,160 -2860,1514 -2860,3162 0,1755 1423,3178 3178,3178l11 0 1 0 4268 -7c-17,-1 -33,-2 -50,-3 105,7 211,10 318,10 78,0 156,-2 234,-5zm3390 -1533c17,-18 34,-36 51,-54 0,0 0,0 0,0 -17,18 -34,36 -51,54zm1719 -5208c-11,-7 -22,-14 -33,-22 11,7 22,14 33,22zm-5267 6208l-1 0 0 0c-25,0 -50,1 -75,1 -1242,0 -2367,-503 -3181,-1317 -814,-814 -1317,-1938 -1317,-3181 0,-1242 503,-2367 1317,-3181 814,-814 1938,-1317 3181,-1317 1242,0 2367,503 3181,1317 814,814 1317,1938 1317,3181 0,1242 -503,2367 -1317,3181 -797,797 -1893,1297 -3105,1317z"/>
  <circle class="fil0" cx="21427" cy="15953" r="1112"/>
  <circle class="fil0" cx="18306" cy="13339" r="477"/>
  <circle class="fil0" cx="21338" cy="19521" r="477"/>
  <circle class="fil0" cx="19379" cy="21549" r="1112"/>
  <circle class="fil0" cx="23987" cy="15536" r="750"/>
  <circle class="fil0" cx="20758" cy="13155" r="857"/>
  <circle class="fil0" cx="22319" cy="21429" r="857"/>
  <circle class="fil0" cx="24310" cy="21213" r="477"/>
  <circle class="fil0" cx="22482" cy="14350" r="496"/>
  <path class="fil0" d="M11933 15254l0 3496c0,176 142,318 318,318 53,0 104,-13 148,-36l15 -9 3094 -1743 1 0c97,-54 163,-158 163,-278 0,-119 -66,-223 -163,-278l0 0c0,0 0,0 0,0l-3094 -1743 -15 -9c-44,-23 -95,-37 -148,-37 -176,0 -318,142 -318,318z"/>
  <g id="_640684280">
   <path class="fil2" d="M4206 24595c190,0 358,42 502,127 145,84 258,194 340,329 17,27 25,55 25,87 0,46 -22,82 -65,108 -19,10 -41,14 -65,14 -27,0 -51,-7 -74,-20 -23,-13 -42,-32 -56,-56 -135,-212 -339,-319 -611,-322 -195,0 -349,41 -463,123 -113,82 -170,199 -170,351 0,282 228,453 683,513 299,43 522,135 669,275 147,140 221,324 221,553 0,169 -41,315 -123,437 -82,123 -194,216 -336,280 -142,64 -301,96 -477,96 -229,0 -432,-49 -609,-146 -177,-98 -304,-230 -381,-396 -10,-17 -14,-36 -14,-58 0,-34 13,-62 38,-85 25,-23 60,-34 103,-34 29,0 56,8 81,24 25,16 44,38 56,67 55,108 148,196 277,262 129,66 279,99 450,99 198,0 357,-48 477,-143 121,-95 181,-228 181,-399 0,-152 -56,-280 -168,-383 -112,-104 -280,-170 -504,-199 -280,-34 -499,-121 -660,-262 -160,-141 -240,-314 -240,-519 0,-145 39,-272 117,-381 78,-110 187,-194 325,-253 139,-59 296,-89 472,-89zm3572 177c0,-41 14,-75 42,-101 28,-27 61,-40 99,-40 41,0 75,13 101,40 27,27 40,60 40,101l0 2541c0,39 -13,72 -40,99 -27,28 -60,42 -101,42 -39,0 -72,-14 -99,-42 -28,-28 -42,-61 -42,-99l0 -1160 -1764 0 0 1160c0,39 -13,72 -40,99 -27,28 -60,42 -101,42 -39,0 -72,-14 -99,-42 -28,-28 -42,-61 -42,-99l0 -2541c0,-41 14,-75 42,-101 28,-27 61,-40 99,-40 41,0 75,13 101,40 27,27 40,60 40,101l0 1128 1764 0 0 -1128zm3123 2483c10,17 14,36 14,58 0,39 -14,72 -42,99 -28,28 -61,42 -99,42 -63,0 -107,-29 -134,-87l-242 -586 -1399 0 -242 586c-19,58 -63,87 -130,87 -41,0 -74,-14 -99,-42 -25,-28 -38,-61 -38,-99 0,-24 4,-45 11,-61l1063 -2523c27,-65 72,-98 137,-98 65,0 110,33 134,98l1066 2527zm-600 -716l-600 -1450 -600 1450 1200 0zm2787 698c22,36 33,69 33,98 0,36 -13,65 -40,87 -27,22 -61,33 -105,33 -29,0 -53,-6 -72,-18 -19,-12 -36,-30 -51,-54l-651 -1034 -61 0 -535 0 0 965c0,41 -13,75 -40,101 -27,27 -60,40 -101,40 -41,0 -75,-13 -101,-40 -27,-27 -40,-60 -40,-101l0 -2541c0,-41 13,-75 40,-101 27,-27 60,-40 101,-40l676 0c176,0 333,37 470,110 137,74 245,177 324,309 78,133 117,283 117,452 0,186 -50,348 -150,488 -100,140 -236,240 -407,300l593 947zm-947 -1160c121,0 230,-25 327,-74 98,-49 174,-117 228,-204 54,-87 81,-186 81,-296 0,-116 -27,-219 -81,-311 -54,-92 -130,-163 -226,-213 -96,-51 -206,-76 -329,-76l-535 0 0 1175 535 0zm3253 1106c41,0 75,13 101,38 27,25 40,57 40,96 0,39 -13,71 -40,98 -27,27 -60,40 -101,40l-1695 0c-39,0 -72,-14 -99,-42 -28,-28 -42,-61 -42,-99l0 -2541c0,-41 14,-75 42,-101 28,-27 61,-40 99,-40l1695 0c41,0 75,13 101,40 27,27 40,59 40,98 0,39 -13,70 -40,96 -27,25 -60,38 -101,38l-1554 0 0 998 1131 0c41,0 75,13 101,40 27,27 40,59 40,98 0,39 -14,71 -42,98 -28,27 -61,40 -99,40l-1131 0 0 1009 1554 0z"/>
   <path class="fil3" d="M18699 24631c53,0 98,18 134,54 36,36 54,81 54,134l0 2447c0,53 -19,98 -56,134 -37,36 -81,54 -132,54 -53,0 -98,-18 -134,-54 -36,-36 -54,-81 -54,-134l0 -1797 -875 1782c-41,63 -95,94 -163,94 -80,0 -137,-37 -174,-112l-864 -1732 0 1764c0,53 -18,98 -54,134 -36,36 -81,54 -134,54 -53,0 -98,-18 -134,-54 -36,-36 -54,-81 -54,-134l0 -2447c0,-53 18,-98 54,-134 36,-36 81,-54 134,-54 72,0 128,34 166,101l1074 2151 1045 -2151c39,-67 94,-101 166,-101zm911 188c0,-55 18,-101 54,-136 36,-35 81,-52 134,-52 55,0 101,17 136,52 35,35 52,80 52,136l0 1688c0,128 34,242 103,343 69,101 164,180 286,237 122,57 261,85 418,85 149,0 283,-28 401,-85 118,-57 210,-136 277,-237 66,-101 99,-216 99,-343l0 -1688c0,-55 18,-101 54,-136 36,-35 81,-52 134,-52 53,0 97,17 132,52 35,35 52,80 52,136l0 1688c0,193 -49,366 -146,519 -98,153 -234,272 -408,358 -175,86 -373,128 -595,128 -229,0 -433,-43 -613,-128 -180,-86 -319,-204 -419,-356 -100,-152 -150,-325 -150,-521l0 -1688zm4002 -221c207,0 382,42 524,127 142,84 263,205 362,362 29,46 43,89 43,130 0,53 -24,96 -72,130 -27,17 -58,25 -94,25 -36,0 -70,-9 -101,-27 -31,-18 -55,-43 -72,-74 -65,-108 -146,-191 -244,-248 -98,-57 -221,-85 -371,-85 -183,0 -331,36 -445,107 -113,71 -170,174 -170,309 0,125 51,230 152,314 101,84 282,140 542,166 289,29 513,116 672,262 159,146 239,338 239,577 0,174 -47,322 -141,446 -94,124 -219,217 -374,278 -155,61 -322,92 -501,92 -234,0 -446,-53 -638,-159 -192,-106 -324,-245 -396,-416 -12,-29 -18,-53 -18,-72 0,-36 13,-68 40,-96 27,-28 63,-46 108,-56 7,-2 19,-4 36,-4 39,0 75,11 110,34 35,23 61,54 78,92 43,94 129,174 257,239 128,65 269,98 423,98 181,0 334,-42 459,-125 125,-83 188,-197 188,-342 0,-137 -53,-255 -159,-352 -106,-98 -268,-157 -484,-179 -299,-29 -534,-116 -705,-262 -171,-146 -257,-328 -257,-548 0,-154 44,-287 132,-399 88,-112 208,-198 362,-257 153,-59 325,-89 515,-89zm1540 221c0,-55 18,-101 54,-136 36,-35 81,-52 134,-52 55,0 101,17 136,52 35,35 52,80 52,136l0 2447c0,53 -17,98 -52,134 -35,36 -80,54 -136,54 -53,0 -98,-18 -134,-54 -36,-36 -54,-81 -54,-134l0 -2447zm2364 -224c183,0 342,24 475,72 134,48 269,128 407,239 29,22 48,44 58,67 10,23 14,50 14,81 0,48 -17,88 -52,119 -35,31 -75,47 -121,47 -46,0 -88,-16 -127,-47 -99,-84 -195,-145 -289,-183 -94,-37 -216,-56 -365,-56 -188,0 -361,49 -519,148 -158,99 -283,233 -376,403 -93,170 -139,355 -139,555 0,202 46,388 139,557 93,169 218,302 376,401 158,99 331,148 519,148 231,0 453,-80 665,-239 41,-29 81,-43 119,-43 46,0 84,16 114,49 30,33 45,75 45,128 0,51 -19,95 -58,134 -260,210 -556,315 -886,315 -258,0 -493,-64 -707,-192 -213,-128 -381,-302 -504,-524 -123,-222 -184,-466 -184,-734 0,-265 61,-508 184,-728 123,-221 291,-395 504,-524 213,-129 449,-193 707,-193z"/>
  </g>
 </g>
</svg>
