<?xml version="1.0" encoding="UTF-8"?>
<!DOCTYPE svg PUBLIC "-//W3C//DTD SVG 1.1//EN" "http://www.w3.org/Graphics/SVG/1.1/DTD/svg11.dtd">
<!-- Creator: CorelDRAW 2017 -->
<svg xmlns="http://www.w3.org/2000/svg" xml:space="preserve" width="297mm" height="420mm" version="1.1" style="shape-rendering:geometricPrecision; text-rendering:geometricPrecision; image-rendering:optimizeQuality; fill-rule:evenodd; clip-rule:evenodd"
viewBox="0 0 29700 42000"
 xmlns:xlink="http://www.w3.org/1999/xlink">
 <defs>
  <style type="text/css">
   <![CDATA[
    .fil0 {fill:black}
   ]]>
  </style>
 </defs>
 <g id="Layer_x0020_1">
  <metadata id="CorelCorpID_0Corel-Layer"/>
  <circle class="fil0" cx="24081" cy="18402" r="1748"/>
  <path class="fil0" d="M13803 22033l3932 0c42,-4 84,-9 125,-15 -46,-148 -70,-306 -70,-469 0,-878 711,-1589 1589,-1589 511,0 966,242 1257,617 70,-79 138,-160 203,-243 -272,-168 -454,-469 -454,-812 0,-527 427,-953 953,-953 109,0 214,18 312,52 72,-316 110,-645 110,-983 0,-44 -1,-87 -2,-130 -107,23 -218,35 -332,35 -878,0 -1589,-711 -1589,-1589 0,-559 289,-1050 725,-1334 -30,-32 -60,-63 -91,-94 -364,-364 -790,-664 -1263,-883 -127,377 -484,649 -904,649 -527,0 -953,-427 -953,-953 0,-34 2,-68 5,-102l-445 0c44,39 88,79 130,120 -904,-862 -2127,-1390 -3474,-1390 -1391,0 -2650,564 -3561,1475 -616,616 -1073,1390 -1304,2257 -1606,160 -2860,1514 -2860,3162 0,1755 1423,3178 3178,3178l11 0 1 0 4268 -7c-17,-1 -33,-2 -50,-3 105,7 211,10 318,10 78,0 156,-2 234,-5zm3390 -1533c17,-18 34,-36 51,-54 0,0 0,0 0,0 -17,18 -34,36 -51,54zm1719 -5208c-11,-7 -22,-14 -33,-22 11,7 22,14 33,22zm-5267 6208l-1 0 0 0c-25,0 -50,1 -75,1 -1242,0 -2367,-503 -3181,-1317 -814,-814 -1317,-1938 -1317,-3181 0,-1242 503,-2367 1317,-3181 814,-814 1938,-1317 3181,-1317 1242,0 2367,503 3181,1317 814,814 1317,1938 1317,3181 0,1242 -503,2367 -1317,3181 -797,797 -1893,1297 -3105,1317z"/>
  <circle class="fil0" cx="21427" cy="15953" r="1112"/>
  <circle class="fil0" cx="18306" cy="13339" r="477"/>
  <circle class="fil0" cx="21338" cy="19521" r="477"/>
  <circle class="fil0" cx="19379" cy="21549" r="1112"/>
  <circle class="fil0" cx="23987" cy="15536" r="750"/>
  <circle class="fil0" cx="20758" cy="13155" r="857"/>
  <circle class="fil0" cx="22319" cy="21429" r="857"/>
  <circle class="fil0" cx="24310" cy="21213" r="477"/>
  <circle class="fil0" cx="22482" cy="14350" r="496"/>
  <path class="fil0" d="M11933 15254l0 3496c0,176 142,318 318,318 53,0 104,-13 148,-36l15 -9 3094 -1743 1 0c97,-54 163,-158 163,-278 0,-119 -66,-223 -163,-278l0 0c0,0 0,0 0,0l-3094 -1743 -15 -9c-44,-23 -95,-37 -148,-37 -176,0 -318,142 -318,318z"/>
 </g>
</svg>
