<?xml version="1.0" encoding="UTF-8"?>
<!DOCTYPE svg PUBLIC "-//W3C//DTD SVG 1.1//EN" "http://www.w3.org/Graphics/SVG/1.1/DTD/svg11.dtd">
<!-- Creator: CorelDRAW 2017 -->
<svg xmlns="http://www.w3.org/2000/svg" xml:space="preserve" width="420mm" height="297mm" version="1.1" style="shape-rendering:geometricPrecision; text-rendering:geometricPrecision; image-rendering:optimizeQuality; fill-rule:evenodd; clip-rule:evenodd"
viewBox="0 0 42000 29700"
 xmlns:xlink="http://www.w3.org/1999/xlink">
 <defs>
  <style type="text/css">
   <![CDATA[
    .fil0 {fill:#00CCFF}
    .fil1 {fill:#666666}
    .fil2 {fill:#00CCFF;fill-rule:nonzero}
    .fil3 {fill:#666666;fill-rule:nonzero}
   ]]>
  </style>
 </defs>
 <g id="Layer_x0020_1">
  <metadata id="CorelCorpID_0Corel-Layer"/>
  <circle class="fil0" cx="14191" cy="15456" r="1021"/>
  <path class="fil1" d="M8188 17577l2296 0c25,-2 49,-5 73,-9 -27,-87 -41,-179 -41,-274 0,-513 415,-928 928,-928 299,0 564,141 734,360 41,-46 81,-93 119,-142 -159,-98 -265,-274 -265,-474 0,-308 249,-557 557,-557 64,0 125,11 182,31 42,-185 64,-377 64,-574 0,-25 0,-51 -1,-76 -63,13 -127,20 -194,20 -513,0 -928,-415 -928,-928 0,-326 169,-613 423,-779 -17,-18 -35,-37 -53,-55 -212,-212 -462,-388 -737,-515 -74,220 -282,379 -528,379 -308,0 -557,-249 -557,-557 0,-20 1,-40 3,-59l-260 0c26,23 51,46 76,70 -528,-503 -1242,-812 -2029,-812 -812,0 -1547,329 -2080,861 -360,360 -627,812 -762,1318 -938,93 -1670,884 -1670,1847 0,1025 831,1856 1856,1856l6 0 1 0 2493 -4c-10,-1 -20,-1 -29,-2 61,4 123,6 186,6 46,0 91,-1 136,-3zm1980 -895c10,-10 20,-21 30,-31 0,0 0,0 0,0 -10,11 -20,21 -30,31zm1004 -3041c-6,-4 -13,-8 -19,-13 6,4 13,8 19,13zm-3076 3625l-1 0 0 0c-15,0 -29,0 -44,0 -725,0 -1382,-294 -1857,-769 -475,-475 -769,-1132 -769,-1857 0,-725 294,-1382 769,-1857 475,-475 1132,-769 1857,-769 725,0 1382,294 1857,769 475,475 769,1132 769,1857 0,725 -294,1382 -769,1857 -466,466 -1105,757 -1813,769z"/>
  <circle class="fil0" cx="12641" cy="14026" r="650"/>
  <circle class="fil0" cx="10818" cy="12500" r="278"/>
  <circle class="fil0" cx="12589" cy="16110" r="278"/>
  <circle class="fil0" cx="11445" cy="17294" r="650"/>
  <circle class="fil0" cx="14136" cy="13783" r="438"/>
  <circle class="fil0" cx="12250" cy="12392" r="501"/>
  <circle class="fil0" cx="13162" cy="17224" r="501"/>
  <circle class="fil0" cx="14324" cy="17098" r="278"/>
  <circle class="fil0" cx="13257" cy="13090" r="290"/>
  <path class="fil0" d="M7097 13618l0 2042c0,103 83,186 186,186 31,0 61,-8 86,-21l9 -5 1807 -1018 0 0c57,-32 95,-92 95,-162 0,-70 -38,-130 -95,-162l0 0c0,0 0,0 0,0l-1807 -1018 -9 -5c-26,-14 -55,-21 -86,-21 -103,0 -186,83 -186,186z"/>
  <g id="_642727376">
   <path class="fil2" d="M17610 13370c165,0 310,37 436,110 125,73 224,168 295,285 15,23 22,48 22,75 0,40 -19,71 -56,94 -17,8 -36,13 -56,13 -23,0 -44,-6 -64,-17 -20,-11 -36,-28 -49,-49 -117,-184 -294,-277 -530,-279 -169,0 -303,36 -401,107 -98,71 -147,172 -147,304 0,245 198,393 593,445 259,38 453,117 580,238 128,121 191,281 191,480 0,146 -36,273 -107,379 -71,107 -168,188 -292,243 -123,55 -261,83 -414,83 -199,0 -375,-42 -528,-127 -154,-85 -264,-199 -331,-343 -8,-15 -13,-31 -13,-50 0,-29 11,-54 33,-74 22,-20 52,-30 89,-30 25,0 49,7 71,20 22,14 38,33 49,58 48,94 128,170 240,227 112,57 242,86 390,86 171,0 309,-41 414,-124 105,-83 157,-198 157,-346 0,-132 -49,-242 -146,-332 -97,-90 -243,-147 -437,-172 -242,-29 -433,-105 -572,-227 -139,-122 -208,-272 -208,-450 0,-125 34,-236 102,-331 68,-95 162,-168 282,-219 120,-51 257,-77 409,-77zm3098 154c0,-36 12,-65 36,-88 24,-23 53,-34 86,-34 36,0 65,12 88,34 23,23 34,52 34,88l0 2204c0,33 -11,62 -34,86 -23,24 -52,36 -88,36 -33,0 -62,-12 -86,-36 -24,-24 -36,-53 -36,-86l0 -1006 -1530 0 0 1006c0,33 -11,62 -34,86 -23,24 -52,36 -88,36 -33,0 -62,-12 -86,-36 -24,-24 -36,-53 -36,-86l0 -2204c0,-36 12,-65 36,-88 24,-23 53,-34 86,-34 36,0 65,12 88,34 23,23 34,52 34,88l0 978 1530 0 0 -978zm2709 2154c8,15 13,31 13,50 0,33 -12,62 -36,86 -24,24 -53,36 -86,36 -54,0 -93,-25 -116,-75l-210 -508 -1213 0 -210 508c-17,50 -54,75 -113,75 -36,0 -64,-12 -86,-36 -22,-24 -33,-53 -33,-86 0,-21 3,-39 9,-53l922 -2188c23,-56 63,-85 119,-85 56,0 95,28 116,85l925 2191zm-520 -621l-520 -1257 -520 1257 1041 0zm2417 605c19,31 28,60 28,85 0,31 -12,56 -34,75 -23,19 -53,28 -91,28 -25,0 -46,-5 -63,-16 -17,-10 -31,-26 -44,-47l-564 -897 -53 0 -464 0 0 837c0,36 -11,65 -34,88 -23,23 -52,34 -88,34 -36,0 -65,-12 -88,-34 -23,-23 -34,-52 -34,-88l0 -2204c0,-36 11,-65 34,-88 23,-23 52,-34 88,-34l586 0c153,0 288,32 408,96 119,64 213,153 281,268 68,115 102,246 102,392 0,161 -43,302 -130,423 -87,121 -204,208 -353,260l514 821zm-821 -1006c105,0 199,-21 284,-64 85,-43 150,-102 198,-177 47,-75 71,-161 71,-257 0,-100 -24,-190 -71,-270 -47,-79 -112,-141 -196,-185 -84,-44 -179,-66 -285,-66l-464 0 0 1019 464 0zm2822 959c36,0 65,11 88,33 23,22 34,50 34,83 0,33 -12,62 -34,85 -23,23 -52,34 -88,34l-1470 0c-33,0 -62,-12 -86,-36 -24,-24 -36,-53 -36,-86l0 -2204c0,-36 12,-65 36,-88 24,-23 53,-34 86,-34l1470 0c36,0 65,12 88,34 23,23 34,51 34,85 0,33 -12,61 -34,83 -23,22 -52,33 -88,33l-1348 0 0 865 981 0c36,0 65,11 88,34 23,23 34,51 34,85 0,33 -12,62 -36,85 -24,23 -53,34 -86,34l-981 0 0 875 1348 0z"/>
   <path class="fil3" d="M30179 13401c46,0 85,16 116,47 31,31 47,70 47,116l0 2123c0,46 -16,85 -49,116 -32,31 -71,47 -114,47 -46,0 -85,-16 -116,-47 -31,-31 -47,-70 -47,-116l0 -1558 -759 1546c-36,54 -83,82 -141,82 -69,0 -119,-32 -150,-97l-749 -1502 0 1530c0,46 -16,85 -47,116 -31,31 -70,47 -116,47 -46,0 -85,-16 -116,-47 -31,-31 -47,-70 -47,-116l0 -2123c0,-46 16,-85 47,-116 31,-31 70,-47 116,-47 63,0 111,29 144,88l931 1865 906 -1865c33,-59 82,-88 144,-88zm790 163c0,-48 16,-87 47,-118 31,-30 70,-45 116,-45 48,0 87,15 118,45 30,30 45,70 45,118l0 1464c0,111 30,210 89,298 60,88 142,156 248,205 106,49 226,74 362,74 130,0 246,-25 348,-74 102,-49 182,-118 240,-205 57,-88 86,-187 86,-298l0 -1464c0,-48 16,-87 47,-118 31,-30 70,-45 116,-45 46,0 84,15 114,45 30,30 45,70 45,118l0 1464c0,167 -42,317 -127,450 -85,133 -203,236 -354,310 -152,74 -323,111 -516,111 -199,0 -376,-37 -531,-111 -156,-74 -277,-177 -364,-309 -87,-132 -130,-282 -130,-451l0 -1464zm3471 -191c180,0 331,37 455,110 123,73 228,178 314,314 25,40 38,77 38,113 0,46 -21,84 -63,113 -23,15 -50,22 -82,22 -31,0 -61,-8 -88,-24 -27,-16 -48,-37 -63,-64 -56,-94 -127,-166 -212,-215 -85,-49 -192,-74 -321,-74 -159,0 -287,31 -386,92 -98,62 -147,151 -147,268 0,109 44,200 132,273 88,73 245,121 470,144 251,25 445,101 583,227 138,126 207,293 207,500 0,150 -41,280 -122,387 -82,108 -190,188 -324,241 -135,53 -280,80 -434,80 -203,0 -387,-46 -553,-138 -166,-92 -281,-212 -343,-361 -10,-25 -16,-46 -16,-63 0,-31 12,-59 34,-83 23,-24 54,-40 94,-49 6,-2 17,-3 31,-3 33,0 65,10 96,30 30,20 53,47 67,80 38,82 112,150 223,207 111,56 233,85 367,85 157,0 289,-36 398,-108 109,-72 163,-171 163,-296 0,-119 -46,-221 -138,-306 -92,-85 -232,-136 -420,-155 -259,-25 -463,-101 -611,-227 -148,-126 -223,-285 -223,-475 0,-134 38,-249 114,-346 76,-97 181,-171 314,-223 133,-51 282,-77 447,-77zm1336 191c0,-48 16,-87 47,-118 31,-30 70,-45 116,-45 48,0 87,15 118,45 30,30 45,70 45,118l0 2123c0,46 -15,85 -45,116 -30,31 -70,47 -118,47 -46,0 -85,-16 -116,-47 -31,-31 -47,-70 -47,-116l0 -2123zm2050 -194c159,0 296,21 412,63 116,42 234,111 353,207 25,19 42,38 50,58 8,20 13,43 13,71 0,42 -15,76 -45,103 -30,27 -65,41 -105,41 -40,0 -76,-14 -110,-41 -86,-73 -169,-126 -251,-158 -82,-32 -187,-49 -317,-49 -163,0 -313,43 -450,129 -137,86 -246,202 -326,350 -80,147 -121,308 -121,481 0,176 40,337 121,483 80,146 189,262 326,348 137,86 287,129 450,129 201,0 393,-69 577,-207 36,-25 70,-38 103,-38 40,0 73,14 99,42 26,28 39,65 39,111 0,44 -17,83 -50,116 -226,182 -482,273 -768,273 -224,0 -428,-55 -613,-166 -185,-111 -331,-262 -437,-455 -107,-192 -160,-404 -160,-636 0,-230 53,-440 160,-632 107,-191 252,-343 437,-455 185,-112 389,-168 613,-168z"/>
  </g>
 </g>
</svg>
